<svg width="37" height="37" viewBox="0 0 37 37" fill="none" xmlns="http://www.w3.org/2000/svg">
<path d="M6.16665 29.2917L4.7329 28.7213C4.63046 28.979 4.59945 29.2596 4.64316 29.5336C4.68686 29.8075 4.80366 30.0645 4.98123 30.2776C5.1588 30.4907 5.39057 30.6519 5.65211 30.7443C5.91365 30.8367 6.19527 30.8568 6.46728 30.8025L6.16665 29.2917ZM13.4217 27.8487L14.1525 26.4905L13.6638 26.2284L13.1211 26.3363L13.4217 27.8487ZM8.67032 22.997L10.1041 23.5675L10.3554 22.9292L10.0532 22.3141L8.67032 22.997ZM29.2917 18.5C29.2917 23.5043 24.8933 27.75 19.2246 27.75V30.8333C26.3794 30.8333 32.375 25.4159 32.375 18.5H29.2917ZM9.15903 18.5C9.15903 13.4958 13.5589 9.25001 19.2261 9.25001V6.16667C12.0712 6.16667 6.07415 11.5841 6.07415 18.5H9.15903ZM19.2261 9.25001C24.8933 9.25001 29.2917 13.4958 29.2917 18.5H32.375C32.375 11.5841 26.381 6.16667 19.2261 6.16667V9.25001ZM19.2246 27.75C17.3669 27.75 15.6371 27.2875 14.1525 26.4905L12.691 29.2053C14.7003 30.2825 16.9448 30.842 19.2246 30.8333V27.75ZM6.46728 30.8025L13.7224 29.3595L13.1211 26.3363L5.86603 27.7793L6.46728 30.804V30.8025ZM10.0532 22.3141C9.46629 21.1282 9.16137 19.8232 9.15903 18.5H6.07415C6.07415 20.35 6.5089 22.1044 7.2859 23.68L10.0532 22.3141ZM7.23811 22.4266L4.7329 28.7228L7.59732 29.8605L10.101 23.5659L7.23657 22.4266H7.23811Z" fill="#60E0FF"/>
<path d="M13.875 20.0417C14.7265 20.0417 15.4167 19.3514 15.4167 18.5C15.4167 17.6486 14.7265 16.9583 13.875 16.9583C13.0236 16.9583 12.3334 17.6486 12.3334 18.5C12.3334 19.3514 13.0236 20.0417 13.875 20.0417Z" fill="#60E0FF"/>
<path d="M19.2708 20.0417C20.1222 20.0417 20.8125 19.3514 20.8125 18.5C20.8125 17.6486 20.1222 16.9583 19.2708 16.9583C18.4194 16.9583 17.7291 17.6486 17.7291 18.5C17.7291 19.3514 18.4194 20.0417 19.2708 20.0417Z" fill="#60E0FF"/>
<path d="M24.6667 20.0417C25.5181 20.0417 26.2083 19.3514 26.2083 18.5C26.2083 17.6486 25.5181 16.9583 24.6667 16.9583C23.8152 16.9583 23.125 17.6486 23.125 18.5C23.125 19.3514 23.8152 20.0417 24.6667 20.0417Z" fill="#60E0FF"/>
</svg>
